# xmcd
#
# Track frame offsets: 
#        150
#        11531
#        26622
#        38341
#        51875
#        64097
#        77252
#        90280
#        105990
#        118073
#        133933
#        144106
#        159399
#        171869
#        186530
#        200607
#        215701
#        228606
#        241957
#        254737
#        265629
#        279115
#        290384
#        303269
#
# Disc length: 4215 seconds
#
# Revision: 1
# Processed by: cddbd v1.5.2PL0 Copyright (c) Steve Scherf et al.
# Submitted via: ExactAudioCopy v1.0b1
#
DISCID=46107518
DTITLE=Roy Hawkins - The Thrill Is Gone
DYEAR=2000
DGENRE=Blues
TTITLE0=Wine Drinkin' Woman
TTITLE1=Got My Dreams Under My Pillow
TTITLE2=On My Way
TTITLE3=Why Do Everything Happen To Me
TTITLE4=Where You Been?
TTITLE5=Mean Little Girl
TTITLE6=I Walk Alone
TTITLE7=My Temper Is Rising
TTITLE8=Trouble Makin' Woman
TTITLE9=Just A Poor Boy
TTITLE10=Royal Hawk (inst)
TTITLE11=You're The Sweetest Thing
TTITLE12=Mistreatin' Baby
TTITLE13=You Had A Good Man
TTITLE14=Hank's Shuffle (inst)
TTITLE15=I'm Never Satisfied
TTITLE16=The Thrill Is Gone
TTITLE17=Real Fine Woman
TTITLE18=Gloom And Misery All Around
TTITLE19=Albania
TTITLE20=I Don't Know Just What To Do
TTITLE21=You're A Free Little Girl
TTITLE22=Trouble Makin' Woman (alt - take 1)
TTITLE23=Blues All Around Me
EXTD=
EXTT0=
EXTT1=
EXTT2=
EXTT3=
EXTT4=
EXTT5=
EXTT6=
EXTT7=
EXTT8=
EXTT9=
EXTT10=
EXTT11=
EXTT12=
EXTT13=
EXTT14=
EXTT15=
EXTT16=
EXTT17=
EXTT18=
EXTT19=
EXTT20=
EXTT21=
EXTT22=
EXTT23=
PLAYORDER=
